<?xml version="1.0" encoding="UTF-8"?>
<svg width="365px" height="365px" viewBox="0 0 365 365" version="1.1" xmlns="http://www.w3.org/2000/svg" xmlns:xlink="http://www.w3.org/1999/xlink">
    <!-- Generator: Sketch 51.3 (57544) - http://www.bohemiancoding.com/sketch -->
    <title>Groupicon</title>
    <desc>Created with Sketch.</desc>
    <defs></defs>
    <g id="Page-1" stroke="none" stroke-width="1" fill="none" fill-rule="evenodd">
        <g id="Login" transform="translate(-178.000000, -325.000000)">
            <g id="Group" transform="translate(178.000000, 325.000000)">
                <circle id="Oval-2" fill-opacity="0.400000006" fill="#C6C6C6" cx="182.5" cy="182.5" r="182.5"></circle>
                <rect id="Rectangle-path" fill="#F7F7F7" fill-rule="nonzero" x="28.8337958" y="76.5979719" width="310.051178" height="233.625062"></rect>
                <path d="M335.662407,79.8132907 L335.662407,307.007715 L32.0563623,307.007715 L32.0563623,79.8132907 L335.662407,79.8132907 L335.662407,79.8132907 Z M342.10754,73.3826532 L25.6112293,73.3826532 L25.6112293,313.438352 L342.10754,313.438352 L342.10754,73.3826532 L342.10754,73.3826532 Z" id="Shape" fill="#F7F7F7" fill-rule="nonzero"></path>
                <rect id="Rectangle-path" fill="#FFFFFF" fill-rule="nonzero" x="32.0563623" y="79.8132907" width="303.606045" height="24.6213035"></rect>
                <rect id="Rectangle-path" fill="#FFFFFF" fill-rule="nonzero" x="32.0563623" y="79.8132907" width="73.0394694" height="227.194424"></rect>
                <rect id="Rectangle-path" fill="#47BFFF" fill-rule="nonzero" x="53.4703166" y="86.9030686" width="30.2115608" height="8.84212661"></rect>
                <ellipse id="Oval" fill="#CCCCCC" fill-rule="nonzero" cx="49.0473441" cy="115.21395" rx="8.01613413" ry="7.99810543"></ellipse>
                <rect id="Rectangle-path" fill="#CCCCCC" fill-rule="nonzero" x="60.2860447" y="112.585427" width="32.6284857" height="5.25704618"></rect>
                <rect id="Rectangle-path" fill="#CCCCCC" fill-rule="nonzero" x="40.7492354" y="131.443272" width="42.932642" height="5.25704618"></rect>
                <rect id="Rectangle-path" fill="#CCCCCC" fill-rule="nonzero" x="40.7492354" y="142.696887" width="42.932642" height="5.25704618"></rect>
                <rect id="Rectangle-path" fill="#CCCCCC" fill-rule="nonzero" x="40.7492354" y="153.950503" width="42.932642" height="5.25704618"></rect>
                <rect id="Rectangle-path" fill="#CCCCCC" fill-rule="nonzero" x="40.7492354" y="166.007949" width="42.932642" height="5.25704618"></rect>
                <rect id="Rectangle-path" fill="#FFFFFF" fill-rule="nonzero" x="121.426187" y="178.660228" width="200.201943" height="120.30919"></rect>
                <rect id="Rectangle-path" fill="#9EED83" fill-rule="nonzero" x="121.426187" y="126.901634" width="60.4392344" height="41.7348376"></rect>
                <rect id="Rectangle-path" fill="#CD81FF" fill-rule="nonzero" x="191.307542" y="126.901634" width="60.4392344" height="41.7348376"></rect>
                <rect id="Rectangle-path" fill="#FF7C88" fill-rule="nonzero" x="261.188896" y="126.901634" width="60.4392344" height="41.7348376"></rect>
                <rect id="Rectangle-path" fill="#CCCCCC" fill-rule="nonzero" x="121.426187" y="113.389257" width="32.6284857" height="5.25704618"></rect>
                <rect id="Rectangle-path" fill="#47BFFF" fill-rule="nonzero" x="40.7492354" y="181.280713" width="55.2267331" height="12.12979"></rect>
                <rect id="Rectangle-path" fill="#FF7C88" fill-rule="nonzero" x="40.7492354" y="197.357307" width="55.2267331" height="12.12979"></rect>
                <rect id="Rectangle-path" fill="#CCCCCC" fill-rule="nonzero" x="132.70517" y="187.349627" width="32.6284857" height="5.25704618"></rect>
                <path d="M28.8337958,70.7380535 L28.8337958,61.6788929 C28.8382336,58.4355062 31.4723385,55.8073256 34.7230361,55.8028978 L332.995733,55.8028978 C336.246431,55.8073256 338.880536,58.4355062 338.884974,61.6788929 L338.884974,70.7380535 L28.8337958,70.7380535 Z" id="Shape" fill="#F7F7F7" fill-rule="nonzero"></path>
                <path d="M332.995733,59.0182166 C334.468497,59.0182166 335.662407,60.2094419 335.662407,61.6788929 L335.662407,67.5227347 L32.0563623,67.5227347 L32.0563623,61.6788929 C32.0563623,60.2094419 33.2502728,59.0182166 34.7230361,59.0182166 L332.995733,59.0182166 L332.995733,59.0182166 Z M332.995733,52.587579 L34.7230361,52.587579 C29.6944023,52.596428 25.6200982,56.6615688 25.6112293,61.6788929 L25.6112293,73.9533722 L342.10754,73.9533722 L342.10754,61.6788929 C342.098671,56.6615688 338.024367,52.596428 332.995733,52.587579 L332.995733,52.587579 Z" id="Shape" fill="#F7F7F7" fill-rule="nonzero"></path>
                <ellipse id="Oval" fill="#FF7C88" fill-rule="nonzero" cx="38.2436899" cy="63.2704756" rx="4.05237735" ry="4.04326335"></ellipse>
                <ellipse id="Oval" fill="#FFFB76" fill-rule="nonzero" cx="48.717031" cy="63.2704756" rx="4.05237735" ry="4.04326335"></ellipse>
                <ellipse id="Oval" fill="#9EED83" fill-rule="nonzero" cx="59.1903721" cy="63.2704756" rx="4.05237735" ry="4.04326335"></ellipse>
            </g>
        </g>
    </g>
</svg>