<?xml version="1.0" encoding="utf-8"?>
<!-- Generator: Adobe Illustrator 18.0.0, SVG Export Plug-In . SVG Version: 6.00 Build 0)  -->
<!DOCTYPE svg PUBLIC "-//W3C//DTD SVG 1.1//EN" "http://www.w3.org/Graphics/SVG/1.1/DTD/svg11.dtd">
<svg version="1.1" id="Layer_1" xmlns="http://www.w3.org/2000/svg" xmlns:xlink="http://www.w3.org/1999/xlink" x="0px" y="0px"
	 viewBox="0 0 132 37" enable-background="new 0 0 132 37" xml:space="preserve">
<title>logo_text</title>
<desc>Created with Sketch.</desc>
<g id="Page-1">
	<g id="Login" transform="translate(-297.000000, -831.000000)">
		<g enable-background="new    ">
			<path fill="#47BFFF" d="M304.4,859h-6.9v-27.4h6.9V859z"/>
			<path fill="#47BFFF" d="M325.6,849c0,3.3-0.9,5.8-2.6,7.6s-4.2,2.7-7.4,2.7c-3,0-5.4-0.9-7.2-2.8s-2.7-4.4-2.7-7.6
				c0-3.2,0.9-5.8,2.6-7.6s4.2-2.7,7.4-2.7c2,0,3.7,0.4,5.2,1.2s2.7,2,3.5,3.6S325.6,846.9,325.6,849z M312.7,849
				c0,1.7,0.2,3,0.7,3.9s1.2,1.3,2.3,1.3c1.1,0,1.8-0.4,2.3-1.3s0.7-2.2,0.7-3.9c0-1.7-0.2-3-0.7-3.8s-1.2-1.3-2.3-1.3
				c-1.1,0-1.8,0.4-2.3,1.3S312.7,847.3,312.7,849z"/>
			<path fill="#47BFFF" d="M345.8,839.1v3.3l-2.7,1c0.4,0.7,0.6,1.5,0.6,2.4c0,2.1-0.8,3.8-2.3,5s-3.8,1.8-6.7,1.8
				c-0.7,0-1.3,0-1.8-0.1c-0.2,0.3-0.2,0.6-0.2,0.9c0,0.3,0.3,0.6,0.8,0.8s1.3,0.3,2.2,0.3h3.3c4.5,0,6.7,1.9,6.7,5.6
				c0,2.4-1,4.3-3.1,5.7s-5,2-8.7,2c-2.8,0-5-0.5-6.5-1.4s-2.3-2.3-2.3-4.1c0-2.4,1.5-3.9,4.4-4.6c-0.6-0.3-1.1-0.7-1.6-1.2
				s-0.7-1.1-0.7-1.7c0-0.6,0.2-1.2,0.5-1.6s1-1,2.1-1.7c-1-0.5-1.8-1.2-2.4-2.1s-0.9-2.2-0.9-3.6c0-2.2,0.7-3.8,2.2-5
				s3.6-1.8,6.3-1.8c0.4,0,1,0,1.9,0.1s1.5,0.2,2,0.2H345.8z M330.8,861.5c0,0.6,0.3,1,0.9,1.4s1.4,0.5,2.4,0.5c1.7,0,3-0.2,4-0.6
				s1.5-1,1.5-1.6c0-0.5-0.3-0.9-0.9-1.1s-1.5-0.3-2.6-0.3h-2.7c-0.7,0-1.4,0.2-1.9,0.5S330.8,861,330.8,861.5z M333,845.6
				c0,2,0.7,3.1,2.1,3.1c0.7,0,1.2-0.3,1.5-0.8s0.5-1.3,0.5-2.3c0-2.1-0.7-3.1-2.1-3.1C333.7,842.5,333,843.6,333,845.6z"/>
			<path fill="#47BFFF" d="M363.5,851.2c0,1.6-0.4,3-1.2,4.2s-2,2.2-3.5,2.9s-3.3,1-5.4,1c-1.7,0-3.1-0.1-4.3-0.4s-2.4-0.7-3.6-1.3
				v-6.2c1.3,0.7,2.7,1.2,4.1,1.6s2.7,0.6,3.9,0.6c1,0,1.8-0.2,2.3-0.5s0.7-0.8,0.7-1.4c0-0.4-0.1-0.7-0.3-0.9s-0.5-0.5-0.9-0.8
				s-1.6-0.8-3.4-1.7c-1.7-0.8-2.9-1.5-3.8-2.2s-1.5-1.5-1.9-2.5s-0.6-2-0.6-3.3c0-2.4,0.9-4.2,2.6-5.5s4.1-2,7.1-2
				c2.7,0,5.4,0.6,8.1,1.8l-2.1,5.4c-2.4-1.1-4.5-1.7-6.2-1.7c-0.9,0-1.6,0.2-2,0.5s-0.6,0.7-0.6,1.2c0,0.5,0.3,1,0.8,1.4
				s1.9,1.1,4.2,2.2c2.2,1,3.8,2.1,4.6,3.2S363.5,849.5,363.5,851.2z"/>
			<path fill="#47BFFF" d="M373.7,859.4c-3.3,0-5.7-0.9-7.4-2.6s-2.5-4.3-2.5-7.6c0-3.3,0.9-5.9,2.7-7.7s4.4-2.7,7.8-2.7
				c2.3,0,4.5,0.5,6.5,1.5l-2,5.1c-0.8-0.4-1.6-0.7-2.3-0.9s-1.4-0.3-2.2-0.3c-1.1,0-2,0.4-2.6,1.3s-0.9,2.1-0.9,3.7
				c0,3.2,1.2,4.8,3.5,4.8c2,0,3.9-0.6,5.8-1.8v5.5C378.3,858.8,376.1,859.4,373.7,859.4z"/>
			<path fill="#47BFFF" d="M394.5,859l-1.3-2.6H393c-0.9,1.1-1.9,1.9-2.8,2.4s-2.2,0.6-3.7,0.6c-1.9,0-3.4-0.6-4.4-1.7
				s-1.6-2.7-1.6-4.7c0-2.1,0.7-3.7,2.2-4.7s3.6-1.6,6.4-1.7l3.3-0.1V846c0-1.6-0.8-2.5-2.4-2.5c-1.5,0-3.3,0.5-5.5,1.5l-2-4.5
				c2.3-1.2,5.2-1.8,8.8-1.8c2.6,0,4.5,0.6,5.9,1.9s2.1,3,2.1,5.3V859H394.5z M389.4,854.5c0.8,0,1.5-0.3,2.1-0.8s0.9-1.2,0.9-2.1
				v-1.5l-1.6,0.1c-2.3,0.1-3.4,0.9-3.4,2.5C387.4,853.9,388.1,854.5,389.4,854.5z"/>
			<path fill="#47BFFF" d="M408.3,859h-6.9v-27.4h6.9V859z"/>
			<path fill="#47BFFF" d="M420.1,859.4c-3.3,0-5.9-0.9-7.7-2.6s-2.8-4.3-2.8-7.5c0-3.4,0.8-5.9,2.5-7.7s4.1-2.7,7.3-2.7
				c3,0,5.3,0.8,7,2.3s2.5,3.8,2.5,6.8v3.1h-12.3c0,1.1,0.5,2,1.2,2.6s1.8,0.9,3.1,0.9c1.2,0,2.3-0.1,3.3-0.3s2.1-0.6,3.3-1.2v4.9
				c-1.1,0.6-2.2,0.9-3.3,1.1S421.7,859.4,420.1,859.4z M419.7,843.4c-0.8,0-1.5,0.3-2,0.8s-0.9,1.3-1,2.4h5.9c0-1-0.3-1.7-0.8-2.3
				S420.6,843.4,419.7,843.4z"/>
		</g>
	</g>
</g>
</svg>
