<svg xmlns="http://www.w3.org/2000/svg" xmlns:xlink="http://www.w3.org/1999/xlink" viewBox="0 0 338.59 214"><defs><style>.cls-1{fill:#009245;}.cls-2{fill:url(#linear-gradient);}.cls-3{fill:url(#linear-gradient-2);}.cls-4{fill:url(#linear-gradient-3);}.cls-5{fill:url(#linear-gradient-4);}.cls-6{fill:url(#linear-gradient-5);}.cls-7{stroke-miterlimit:10;fill:url(#linear-gradient-6);stroke:url(#linear-gradient-7);}.cls-8{fill:#c7b299;}</style><linearGradient id="linear-gradient" x1="81.31" y1="146.77" x2="58.4" y2="133.3" gradientTransform="matrix(1, 0.03, -0.03, 1, 12.43, -3.98)" gradientUnits="userSpaceOnUse"><stop offset="0" stop-color="#754c24"/><stop offset="1" stop-color="#a67c52"/></linearGradient><linearGradient id="linear-gradient-2" x1="115.48" y1="204.38" x2="89.48" y2="115.38" gradientTransform="matrix(1, 0, 0, 1, 0, 0)" xlink:href="#linear-gradient"/><linearGradient id="linear-gradient-3" x1="124.21" y1="205.21" x2="96.21" y2="124.21" gradientTransform="matrix(1, 0, 0, 1, 0, 0)" xlink:href="#linear-gradient"/><linearGradient id="linear-gradient-4" x1="167.59" y1="187.44" x2="126.59" y2="120.44" gradientTransform="matrix(1, 0, 0, 1, 0, 0)" xlink:href="#linear-gradient"/><linearGradient id="linear-gradient-5" x1="220.74" y1="226.96" x2="219.74" y2="165.46" gradientTransform="matrix(1, 0, 0, 1, 0, 0)" xlink:href="#linear-gradient"/><linearGradient id="linear-gradient-6" x1="343.32" y1="253.91" x2="209.83" y2="78.42" gradientTransform="matrix(1, 0, 0, 1, 0, 0)" xlink:href="#linear-gradient"/><linearGradient id="linear-gradient-7" x1="138.62" y1="107.4" x2="325.12" y2="107.4" gradientUnits="userSpaceOnUse"><stop offset="0" stop-color="#fff"/><stop offset="1"/></linearGradient></defs><title>Asset 1</title><g id="Layer_2" data-name="Layer 2"><g id="Layer_1-2" data-name="Layer 1"><path class="cls-1" d="M70.87,103.07A33.68,33.68,0,0,1,4,111L0,77.57l33.45-4A33.67,33.67,0,0,1,70.87,103.07Z"/><polygon class="cls-2" points="78.33 146.37 5.8 83.49 84.3 138.98 78.33 146.37"/><polygon class="cls-3" points="184.9 50.98 48.6 214 4.05 214 158.24 29.12 176.29 43.92 184.9 50.98"/><polygon class="cls-4" points="181.25 109.27 95.91 214 37.05 214 146.23 80.02 152.88 85.73 180.37 108.62 181.25 109.27"/><polygon class="cls-5" points="236.66 155.85 228.63 165.85 219.75 176.9 213.19 184.78 189.48 214 95.44 214 159.42 134.64 168.31 123.7 175.48 114.84 180.37 108.8 181.25 109.54 235.78 155.12 236.66 155.85"/><path class="cls-6" d="M262.85,185.24l-4.61,5.59L254,196l-4,4.8-5.44,6.59L240,212.62q-2.75.45-5.52.75l-.73.07a106.45,106.45,0,0,1-10.92.56H177.74l6.13-7.38,6.46-7.79L200.11,187l19.06-23,5.75-6.85,1.83-2.14,0,0,.88.77L253,177l5.93,5Z"/><ellipse class="cls-7" cx="231.87" cy="107.4" rx="92.75" ry="97.62"/><path class="cls-8" d="M289.2,92.13a59.39,59.39,0,0,0-57.32-44.4c-1,0-2.06,0-3.09.08-.81,0-1.62.1-2.42.17a59.51,59.51,0,0,0-53,49.85,60.38,60.38,0,0,0-.75,9.56c0,1.8.09,3.58.24,5.33,0,.61.11,1.22.18,1.82a59.63,59.63,0,0,0,40.28,49.52,58.61,58.61,0,0,0,14.05,2.8c1.49.12,3,.18,4.52.18A59.74,59.74,0,0,0,289.2,92.13Zm-36.86,44.53a35.22,35.22,0,0,1-20.47,6.53,35.6,35.6,0,1,1,20.47-6.53Z"/><path class="cls-8" d="M322.93,51.18A106.42,106.42,0,0,0,231.88,0c-32.42,0-61,10.82-83.63,40.39-1.75,2.29-3.45,4.67-5.12,7.17a106.77,106.77,0,0,0-17.48,49.08c-.31,3.41-.48,6.86-.48,10.36a106.8,106.8,0,0,0,11.66,48.69c.16.32.33.62.48.94q.86,1.63,1.77,3.24a107.16,107.16,0,0,0,53.79,46.75l.73.29,1.26.47c2.74,1,5.54,1.94,8.38,2.73a107.2,107.2,0,0,0,39.56,3.33l.73-.07q2.77-.3,5.52-.75A107.13,107.13,0,0,0,322.93,51.18ZM268.59,181.65c-.22.11-.44.22-.66.31a82.2,82.2,0,0,1-36.05,8.26c-.8,0-1.6,0-2.39,0a84.26,84.26,0,0,1-9.32-.78,80,80,0,0,1-9.22-1.86l-1-.28-.79-.23a83.11,83.11,0,0,1-53.64-47.51c-.43-1-.84-2-1.23-3-.16-.41-.31-.83-.45-1.24a83,83,0,1,1,114.8,46.41Z"/><ellipse class="cls-8" cx="231.87" cy="107.4" rx="11.86" ry="11.93"/></g></g></svg>